<svg xmlns="http://www.w3.org/2000/svg" viewBox="0 0 900 620" fill="none"><rect width="900" height="620" rx="40" fill="#f8f4ed"/><circle cx="690" cy="140" r="120" fill="#b79d65" fill-opacity=".18"/><circle cx="180" cy="500" r="140" fill="#231f20" fill-opacity=".08"/><rect x="140" y="120" width="620" height="380" rx="34" fill="#fff" stroke="#dbcdae"/><path d="M220 404C298 300 394 236 514 220C604 208 666 164 718 116" stroke="#b79d65" stroke-width="14" stroke-linecap="round"/><circle cx="238" cy="388" r="22" fill="#231f20"/><circle cx="514" cy="220" r="22" fill="#b79d65"/><circle cx="716" cy="118" r="22" fill="#231f20"/><rect x="220" y="166" width="160" height="18" rx="9" fill="#231f20" fill-opacity=".14"/><rect x="220" y="204" width="250" height="14" rx="7" fill="#231f20" fill-opacity=".1"/><rect x="220" y="238" width="198" height="14" rx="7" fill="#231f20" fill-opacity=".1"/><rect x="520" y="284" width="140" height="140" rx="28" fill="#231f20" fill-opacity=".06" stroke="#b79d65" stroke-opacity=".35"/><path d="M564 336H616M590 310V362" stroke="#b79d65" stroke-width="14" stroke-linecap="round"/></svg>