<svg xmlns="http://www.w3.org/2000/svg" viewBox="0 0 1000 760" fill="none"><defs><linearGradient id="g" x1="0" y1="0" x2="1" y2="1"><stop stop-color="#b79d65"/><stop offset="1" stop-color="#231f20"/></linearGradient></defs><rect width="1000" height="760" rx="42" fill="#f6f1e8"/><circle cx="170" cy="140" r="100" fill="#b79d65" fill-opacity=".18"/><circle cx="830" cy="110" r="72" fill="#231f20" fill-opacity=".08"/><rect x="170" y="120" width="650" height="420" rx="32" fill="#fff" stroke="#d9caa8"/><rect x="220" y="170" width="260" height="18" rx="9" fill="#231f20"/><rect x="220" y="206" width="180" height="14" rx="7" fill="#b79d65"/><rect x="220" y="274" width="180" height="180" rx="28" fill="url(#g)"/><rect x="430" y="274" width="320" height="18" rx="9" fill="#231f20"/><rect x="430" y="312" width="250" height="14" rx="7" fill="#7b7068"/><rect x="430" y="346" width="220" height="14" rx="7" fill="#7b7068"/><rect x="430" y="392" width="170" height="46" rx="23" fill="#b79d65"/><path d="M270 366l34 34 62-78" stroke="#fff" stroke-width="14" stroke-linecap="round" stroke-linejoin="round"/><path d="M104 614c92-40 148-48 242-18 76 24 144 26 226-6 92-36 174-28 282 26" stroke="#b79d65" stroke-width="10" stroke-linecap="round" opacity=".55"/></svg>