
<svg width="900" height="900" viewBox="0 0 900 900" fill="none" xmlns="http://www.w3.org/2000/svg">
<defs>
  <radialGradient id="g1" cx="0" cy="0" r="1" gradientUnits="userSpaceOnUse" gradientTransform="translate(340 300) rotate(43) scale(420 420)">
    <stop offset="0" stop-color="#F4E8C8"/>
    <stop offset="0.34" stop-color="#C6A96B"/>
    <stop offset="1" stop-color="#2D2824"/>
  </radialGradient>
  <linearGradient id="g2" x1="200" y1="120" x2="710" y2="760" gradientUnits="userSpaceOnUse">
    <stop stop-color="#1B1716"/>
    <stop offset="1" stop-color="#0F1013"/>
  </linearGradient>
  <filter id="blur1" x="0" y="0" width="900" height="900" filterUnits="userSpaceOnUse">
    <feGaussianBlur stdDeviation="22"/>
  </filter>
</defs>
<g filter="url(#blur1)">
<path d="M542.693 143.972C672.064 186.985 761.624 322.722 761.005 469.453C760.464 597.537 673.998 720.592 560.909 769.73C451.383 817.319 321.783 780.32 231.882 692.968C145.481 609.016 110.298 484.975 143.632 369.714C178.902 247.759 262.686 126.54 383.635 113.054C437.334 107.066 490.931 126.724 542.693 143.972Z" fill="url(#g2)"/>
<path d="M623.131 247.877C669.561 313.588 703.63 399.701 681.459 474.629C659.289 549.558 580.877 607.74 501.348 626.945C421.818 646.151 341.247 627.453 280.655 578.86C220.064 530.267 179.452 451.778 198.193 375.778C216.934 299.777 295.012 226.265 378.379 205.605C461.746 184.945 576.702 182.166 623.131 247.877Z" fill="url(#g1)" fill-opacity="0.84"/>
<path d="M619.347 210.762C681.502 268.208 727.787 347.06 733.387 430.783C739.705 525.246 718.499 630.025 642.732 689.84C566.178 750.278 454.64 758.406 355.798 732.762C259.588 707.8 179.526 643.291 140.505 551.247C102.432 461.441 117.633 356.256 168.934 273.32C219.935 190.87 311.269 147.706 405.974 143.323C484.603 139.684 561.923 157.695 619.347 210.762Z" stroke="#F4E8C8" stroke-opacity="0.25" stroke-width="20"/>
</g>
</svg>
