<svg width="1600" height="500" viewBox="0 0 1600 500" fill="none" xmlns="http://www.w3.org/2000/svg"><defs><linearGradient id="gg" x1="0" y1="0" x2="1600" y2="500" gradientUnits="userSpaceOnUse"><stop stop-color="#C6A96B" stop-opacity="0.22"/><stop offset="1" stop-color="#0F1013" stop-opacity="0"/></linearGradient></defs><rect width="1600" height="500" fill="url(#gg)"/><g opacity="0.18" stroke="#C6A96B"><path d="M0 40 C 300 10 500 65 800 40 S 1300 15 1600 40" stroke-width="1.2"/><path d="M0 72 C 300 42 500 97 800 72 S 1300 47 1600 72" stroke-width="1.2"/><path d="M0 104 C 300 74 500 129 800 104 S 1300 79 1600 104" stroke-width="1.2"/><path d="M0 136 C 300 106 500 161 800 136 S 1300 111 1600 136" stroke-width="1.2"/><path d="M0 168 C 300 138 500 193 800 168 S 1300 143 1600 168" stroke-width="1.2"/><path d="M0 200 C 300 170 500 225 800 200 S 1300 175 1600 200" stroke-width="1.2"/><path d="M0 232 C 300 202 500 257 800 232 S 1300 207 1600 232" stroke-width="1.2"/><path d="M0 264 C 300 234 500 289 800 264 S 1300 239 1600 264" stroke-width="1.2"/><path d="M0 296 C 300 266 500 321 800 296 S 1300 271 1600 296" stroke-width="1.2"/><path d="M0 328 C 300 298 500 353 800 328 S 1300 303 1600 328" stroke-width="1.2"/><path d="M0 360 C 300 330 500 385 800 360 S 1300 335 1600 360" stroke-width="1.2"/><path d="M0 392 C 300 362 500 417 800 392 S 1300 367 1600 392" stroke-width="1.2"/><path d="M0 424 C 300 394 500 449 800 424 S 1300 399 1600 424" stroke-width="1.2"/><path d="M0 456 C 300 426 500 481 800 456 S 1300 431 1600 456" stroke-width="1.2"/></g><g opacity="0.09" stroke="#F0EEE7"><line x1="40" y1="0" x2="40" y2="500" stroke-width="1"/><line x1="90" y1="0" x2="90" y2="500" stroke-width="1"/><line x1="140" y1="0" x2="140" y2="500" stroke-width="1"/><line x1="190" y1="0" x2="190" y2="500" stroke-width="1"/><line x1="240" y1="0" x2="240" y2="500" stroke-width="1"/><line x1="290" y1="0" x2="290" y2="500" stroke-width="1"/><line x1="340" y1="0" x2="340" y2="500" stroke-width="1"/><line x1="390" y1="0" x2="390" y2="500" stroke-width="1"/><line x1="440" y1="0" x2="440" y2="500" stroke-width="1"/><line x1="490" y1="0" x2="490" y2="500" stroke-width="1"/><line x1="540" y1="0" x2="540" y2="500" stroke-width="1"/><line x1="590" y1="0" x2="590" y2="500" stroke-width="1"/><line x1="640" y1="0" x2="640" y2="500" stroke-width="1"/><line x1="690" y1="0" x2="690" y2="500" stroke-width="1"/><line x1="740" y1="0" x2="740" y2="500" stroke-width="1"/><line x1="790" y1="0" x2="790" y2="500" stroke-width="1"/><line x1="840" y1="0" x2="840" y2="500" stroke-width="1"/><line x1="890" y1="0" x2="890" y2="500" stroke-width="1"/><line x1="940" y1="0" x2="940" y2="500" stroke-width="1"/><line x1="990" y1="0" x2="990" y2="500" stroke-width="1"/><line x1="1040" y1="0" x2="1040" y2="500" stroke-width="1"/><line x1="1090" y1="0" x2="1090" y2="500" stroke-width="1"/><line x1="1140" y1="0" x2="1140" y2="500" stroke-width="1"/><line x1="1190" y1="0" x2="1190" y2="500" stroke-width="1"/><line x1="1240" y1="0" x2="1240" y2="500" stroke-width="1"/><line x1="1290" y1="0" x2="1290" y2="500" stroke-width="1"/><line x1="1340" y1="0" x2="1340" y2="500" stroke-width="1"/><line x1="1390" y1="0" x2="1390" y2="500" stroke-width="1"/><line x1="1440" y1="0" x2="1440" y2="500" stroke-width="1"/><line x1="1490" y1="0" x2="1490" y2="500" stroke-width="1"/><line x1="1540" y1="0" x2="1540" y2="500" stroke-width="1"/><line x1="1590" y1="0" x2="1590" y2="500" stroke-width="1"/></g></svg>