<svg xmlns="http://www.w3.org/2000/svg" viewBox="0 0 1200 900">
<defs>
  <linearGradient id="bg" x1="0" x2="1"><stop offset="0" stop-color="#09090b"/><stop offset="1" stop-color="#15161d"/></linearGradient>
  <radialGradient id="gold" cx="30%" cy="30%"><stop offset="0" stop-color="#c6a96b" stop-opacity=".9"/><stop offset="1" stop-color="#c6a96b" stop-opacity="0"/></radialGradient>
  <radialGradient id="blue" cx="70%" cy="35%"><stop offset="0" stop-color="#90b4ff" stop-opacity=".55"/><stop offset="1" stop-color="#90b4ff" stop-opacity="0"/></radialGradient>
  <linearGradient id="metal" x1="0" x2="1"><stop offset="0" stop-color="#dde2f2"/><stop offset=".3" stop-color="#586074"/><stop offset=".55" stop-color="#f7f9ff"/><stop offset="1" stop-color="#1a1d27"/></linearGradient>
</defs>
<rect width="1200" height="900" fill="url(#bg)"/><rect width="1200" height="900" fill="url(#gold)"/><rect width="1200" height="900" fill="url(#blue)"/>
<g opacity=".16" stroke="#ffffff"><path d="M120 0v900M260 0v900M400 0v900M540 0v900M680 0v900M820 0v900M960 0v900" /></g>
<g transform="translate(620 120)">
  <ellipse cx="180" cy="640" rx="210" ry="45" fill="#000" opacity=".45"/>
  <path d="M180 60c90 0 150 78 150 150 0 65-48 112-77 162-15 27-20 45-20 74v95H120v-95c0-29-5-47-20-74-29-50-77-97-77-162 0-72 60-150 157-150z" fill="url(#metal)"/>
  <ellipse cx="180" cy="100" rx="115" ry="100" fill="#0a0d16"/>
  <path d="M97 92c0-55 39-94 83-94s83 39 83 94-39 82-83 82-83-27-83-82z" fill="#090b13"/>
  <path d="M103 97c37-34 123-39 158-18 11 6 18 13 24 20-5 32-33 62-97 66-40 3-71-9-85-28z" fill="#0f1727"/>
  <path d="M74 196c31 18 58 49 80 87 12 22 19 58 19 98v182h-68V387c0-20-3-35-13-53-14-24-44-60-60-90-13-24-19-49-19-76 0-18 4-38 9-54 15 31 31 60 52 82z" fill="#868ea3"/>
  <path d="M286 196c-31 18-58 49-80 87-12 22-19 58-19 98v182h68V387c0-20 3-35 13-53 14-24 44-60 60-90 13-24 19-49 19-76 0-18-4-38-9-54-15 31-31 60-52 82z" fill="#4c5467"/>
  <rect x="110" y="544" width="140" height="95" rx="18" fill="#1a1d27" stroke="#9ca7c5" stroke-opacity=".4"/>
  <circle cx="145" cy="589" r="15" fill="#0b0d15" stroke="#adb5ce"/>
  <circle cx="208" cy="589" r="10" fill="#0b0d15" stroke="#adb5ce"/>
  <rect x="160" y="575" width="30" height="26" rx="5" fill="#31394d"/>
  <path d="M111 641c-38 32-67 79-78 149l38 10c13-60 34-94 69-122z" fill="#7a8398"/>
  <path d="M249 641c38 32 67 79 78 149l-38 10c-13-60-34-94-69-122z" fill="#555e73"/>
  <circle cx="92" cy="600" r="18" fill="#181b25" stroke="#cfd6ea" stroke-opacity=".45"/>
  <circle cx="268" cy="600" r="18" fill="#181b25" stroke="#cfd6ea" stroke-opacity=".45"/>
  <path d="M65 95l45-38M296 95l-48-38" stroke="#868ea3" stroke-width="6"/>
</g>
</svg>