<svg xmlns="http://www.w3.org/2000/svg" viewBox="0 0 1200 900">
<defs><linearGradient id="bg" x1="0" y1="0" x2="0" y2="1"><stop offset="0" stop-color="#05070d"/><stop offset="1" stop-color="#0f1320"/></linearGradient><radialGradient id="planet" cx="35%" cy="35%"><stop offset="0" stop-color="#dfeeff"/><stop offset=".35" stop-color="#5f8cff"/><stop offset=".75" stop-color="#12306e"/><stop offset="1" stop-color="#06122a"/></radialGradient><radialGradient id="gold" cx="20%" cy="20%"><stop offset="0" stop-color="#c6a96b" stop-opacity=".7"/><stop offset="1" stop-color="#c6a96b" stop-opacity="0"/></radialGradient></defs>
<rect width="1200" height="900" fill="url(#bg)"/><rect width="1200" height="900" fill="url(#gold)"/>
<g opacity=".7"><circle cx="170" cy="120" r="1.4" fill="#fff"/><circle cx="220" cy="250" r="1" fill="#fff"/><circle cx="340" cy="72" r="1" fill="#fff"/><circle cx="520" cy="180" r="1.2" fill="#fff"/><circle cx="680" cy="88" r="1" fill="#fff"/><circle cx="900" cy="170" r="1.5" fill="#fff"/><circle cx="1030" cy="74" r="1.1" fill="#fff"/><circle cx="1100" cy="230" r="1.2" fill="#fff"/></g>
<g transform="translate(110,140)">
 <circle cx="490" cy="380" r="260" fill="url(#planet)"/><circle cx="435" cy="330" r="110" fill="#8ed2ff" opacity=".22"/><ellipse cx="520" cy="400" rx="320" ry="40" fill="#d5ebff" opacity=".08"/>
 <path d="M310 405c40-82 160-130 272-115 66 9 118 32 172 75" fill="none" stroke="#dff2ff" stroke-opacity=".35" stroke-width="2"/><path d="M250 360c80-22 161-28 257-16" fill="none" stroke="#dff2ff" stroke-opacity=".18" stroke-width="2"/><path d="M620 178c-5 32-27 55-53 76-47 38-62 80-44 139" fill="none" stroke="#ffffff" stroke-opacity=".2" stroke-width="3"/><path d="M525 520c54-10 96-40 137-90" fill="none" stroke="#ffffff" stroke-opacity=".25" stroke-width="2"/>
</g></svg>