<svg xmlns="http://www.w3.org/2000/svg" viewBox="0 0 1200 800"><defs><radialGradient id="rg" cx="50%" cy="50%"><stop offset="0" stop-color="#c6a96b" stop-opacity=".22"/><stop offset="1" stop-color="#c6a96b" stop-opacity="0"/></radialGradient></defs><rect width="1200" height="800" fill="#0b0d12"/><g stroke="#202430" stroke-opacity=".9"><path d="M0 100H1200M0 200H1200M0 300H1200M0 400H1200M0 500H1200M0 600H1200M0 700H1200"/><path d="M100 0V800M200 0V800M300 0V800M400 0V800M500 0V800M600 0V800M700 0V800M800 0V800M900 0V800M1000 0V800M1100 0V800"/></g><rect width="1200" height="800" fill="url(#rg)"/></svg>