<svg xmlns="http://www.w3.org/2000/svg" viewBox="0 0 800 600"><defs><linearGradient id="b" x1="0" x2="1"><stop offset="0" stop-color="#0c0f18"/><stop offset="1" stop-color="#151928"/></linearGradient></defs><rect width="800" height="600" rx="28" fill="url(#b)"/><g transform="translate(95 95)"><rect width="610" height="410" rx="30" fill="#111522" stroke="#2b3344"/><rect x="36" y="36" width="538" height="50" rx="18" fill="#161c2a"/><circle cx="76" cy="61" r="8" fill="#ff5f56"/><circle cx="103" cy="61" r="8" fill="#ffbd2e"/><circle cx="130" cy="61" r="8" fill="#27c93f"/><rect x="60" y="120" width="220" height="240" rx="24" fill="#1a2030"/><rect x="310" y="120" width="220" height="100" rx="24" fill="#1a2030"/><rect x="310" y="240" width="220" height="120" rx="24" fill="#1a2030"/><rect x="90" y="160" width="120" height="22" rx="11" fill="#c6a96b"/><rect x="90" y="196" width="145" height="16" rx="8" fill="#2f3952"/><rect x="90" y="224" width="115" height="16" rx="8" fill="#2a3348"/><rect x="340" y="150" width="160" height="18" rx="9" fill="#9ec0ff"/><rect x="340" y="185" width="120" height="14" rx="7" fill="#2b3347"/><rect x="340" y="270" width="160" height="18" rx="9" fill="#c6a96b"/><rect x="340" y="305" width="145" height="14" rx="7" fill="#2b3347"/></g></svg>