<svg xmlns="http://www.w3.org/2000/svg" viewBox="0 0 800 600"><defs><linearGradient id="g" x1="0" x2="1"><stop offset="0" stop-color="#0c0f17"/><stop offset="1" stop-color="#151926"/></linearGradient><linearGradient id="gold" x1="0" x2="1"><stop offset="0" stop-color="#c6a96b"/><stop offset="1" stop-color="#f0e2b2"/></linearGradient></defs><rect width="800" height="600" rx="28" fill="url(#g)"/><circle cx="180" cy="130" r="110" fill="#c6a96b" opacity=".12"/><circle cx="620" cy="470" r="140" fill="#7aa6ff" opacity=".08"/><rect x="120" y="120" width="560" height="360" rx="32" fill="#111522" stroke="#2b3244"/><rect x="150" y="160" width="200" height="28" rx="14" fill="#c6a96b" opacity=".9"/><rect x="150" y="205" width="310" height="20" rx="10" fill="#31394e"/><rect x="150" y="240" width="260" height="20" rx="10" fill="#262d3f"/><rect x="150" y="300" width="120" height="120" rx="26" fill="#1c2231"/><rect x="290" y="300" width="120" height="120" rx="26" fill="#1c2231"/><rect x="430" y="300" width="120" height="120" rx="26" fill="#1c2231"/><circle cx="210" cy="360" r="26" fill="url(#gold)"/><circle cx="350" cy="360" r="26" fill="#9bc4ff"/><circle cx="490" cy="360" r="26" fill="#ff6ea6"/><rect x="571" y="161" width="70" height="70" rx="20" fill="#181f2c"/><rect x="571" y="250" width="70" height="70" rx="20" fill="#181f2c"/><rect x="571" y="339" width="70" height="70" rx="20" fill="#181f2c"/></svg>