<svg xmlns="http://www.w3.org/2000/svg" viewBox="0 0 1600 500">
<defs><linearGradient id="a" x1="0" x2="1"><stop offset="0" stop-color="#c6a96b" stop-opacity=".2"/><stop offset="1" stop-color="#ffffff" stop-opacity=".04"/></linearGradient></defs>
<rect width="1600" height="500" fill="transparent"/>
<g fill="none" stroke="url(#a)" stroke-width="1">
<path d="M0 50 C 280 10, 520 90, 800 50 S 1320 10, 1600 50"/>
<path d="M0 78 C 280 38, 520 118, 800 78 S 1320 38, 1600 78"/>
<path d="M0 106 C 280 66, 520 146, 800 106 S 1320 66, 1600 106"/>
<path d="M0 134 C 280 94, 520 174, 800 134 S 1320 94, 1600 134"/>
<path d="M0 162 C 280 122, 520 202, 800 162 S 1320 122, 1600 162"/>
<path d="M0 190 C 280 150, 520 230, 800 190 S 1320 150, 1600 190"/>
<path d="M0 218 C 280 178, 520 258, 800 218 S 1320 178, 1600 218"/>
<path d="M0 246 C 280 206, 520 286, 800 246 S 1320 206, 1600 246"/>
<path d="M0 274 C 280 234, 520 314, 800 274 S 1320 234, 1600 274"/>
<path d="M0 302 C 280 262, 520 342, 800 302 S 1320 262, 1600 302"/>
<path d="M0 330 C 280 290, 520 370, 800 330 S 1320 290, 1600 330"/>
<path d="M0 358 C 280 318, 520 398, 800 358 S 1320 318, 1600 358"/>
</g></svg>